<mxfile host="app.diagrams.net" modified="2023-08-21T16:31:52.631Z" agent="Mozilla/5.0 (X11; Linux x86_64; rv:102.0) Gecko/20100101 Firefox/102.0" etag="4rxTZj1Qu2AJSwRV6NNB" version="21.6.8" type="device">
  <diagram name="Page-1" id="N_xx2lQ_UFTohY0Kw4xc">
    <mxGraphModel dx="1596" dy="758" grid="1" gridSize="10" guides="1" tooltips="1" connect="1" arrows="1" fold="1" page="1" pageScale="1" pageWidth="850" pageHeight="1100" math="0" shadow="0">
      <root>
        <mxCell id="0" />
        <mxCell id="1" parent="0" />
        <mxCell id="80V5x-8hYkvcrAe8ty6e-12" value="" style="rounded=0;whiteSpace=wrap;html=1;fillColor=#dae8fc;strokeColor=#6c8ebf;" vertex="1" parent="1">
          <mxGeometry x="480" y="450" width="470" height="730" as="geometry" />
        </mxCell>
        <mxCell id="80V5x-8hYkvcrAe8ty6e-11" value="typedef struct UpdateFileHeaderInfo{/* 0x000-0x00B 12 Bytes                   */&#xa;  uint32_t magic_number;           /* 0x000-0x003 Magic Number for sanity    */&#xa;  uint16_t header_size;            /* 0x004-0x005 Size of header             */&#xa;  uint16_t num_components;         /* 0x006-0x007 Number components included */&#xa;  sw_version_nums_t version;&#xa;} UpdateFileHeaderInfo_t;" style="text;whiteSpace=wrap;" vertex="1" parent="1">
          <mxGeometry x="500" y="490" width="470" height="110" as="geometry" />
        </mxCell>
        <mxCell id="80V5x-8hYkvcrAe8ty6e-5" value="Update File Header" style="text;html=1;align=center;verticalAlign=middle;resizable=0;points=[];autosize=1;strokeColor=none;fillColor=none;" vertex="1" parent="1">
          <mxGeometry x="650" y="450" width="130" height="30" as="geometry" />
        </mxCell>
        <mxCell id="80V5x-8hYkvcrAe8ty6e-20" value="" style="group" vertex="1" connectable="0" parent="1">
          <mxGeometry x="490" y="860" width="450" height="270" as="geometry" />
        </mxCell>
        <mxCell id="80V5x-8hYkvcrAe8ty6e-13" value="" style="rounded=0;whiteSpace=wrap;html=1;fillColor=#d5e8d4;strokeColor=#82b366;" vertex="1" parent="80V5x-8hYkvcrAe8ty6e-20">
          <mxGeometry width="450" height="270" as="geometry" />
        </mxCell>
        <mxCell id="80V5x-8hYkvcrAe8ty6e-14" value="Component Header" style="text;html=1;align=center;verticalAlign=middle;resizable=0;points=[];autosize=1;strokeColor=none;fillColor=none;" vertex="1" parent="80V5x-8hYkvcrAe8ty6e-20">
          <mxGeometry x="160" width="130" height="30" as="geometry" />
        </mxCell>
        <mxCell id="80V5x-8hYkvcrAe8ty6e-15" value="typedef struct UpdateComponent {  /* 0x00-0x3F 64 Byte Component info        */&#xa;    struct {                      /* 0x00-0x23 Component Info                */&#xa;        uint32_t device_magic; /* 0x00-0x03 Component magic number        */&#xa;        uint32_t offset;          /* 0x04-0x07 Offset within the update file */&#xa;        uint32_t size;            /* 0x08-0x0B Size of the component         */&#xa;        uint32_t component;       /* 0x0C-0x0F Component ID(component_type_t)*/&#xa;        uint8_t major;            /* 0x10-0x11 Component major version       */&#xa;        uint8_t minor;            /* 0x11-0x12 Component major version       */&#xa;        uint8_t rev;              /* 0x12-0x13 Component major version       */&#xa;        uint8_t unused;           /* 0x13-0x14 Padding                       */&#xa;        uint8_t git_sha[16];      /* 0x14-0x23 git rev-parse HEAD (first 16) */&#xa;    } UpdateImageHdrInfo_t;&#xa;    uint8_t unused[0x1A];  /* 0x24-0x39 Pad = size-pos-(CRC + Magic)  */&#xa;    uint16_t crc;          /* 0x3E-0x3F CRC for this component        */&#xa;} UpdateImageHdr_t;" style="text;whiteSpace=wrap;" vertex="1" parent="80V5x-8hYkvcrAe8ty6e-20">
          <mxGeometry x="10" y="30" width="440" height="240" as="geometry" />
        </mxCell>
        <mxCell id="80V5x-8hYkvcrAe8ty6e-21" value="" style="group" vertex="1" connectable="0" parent="1">
          <mxGeometry x="490" y="590" width="450" height="270" as="geometry" />
        </mxCell>
        <mxCell id="80V5x-8hYkvcrAe8ty6e-22" value="" style="rounded=0;whiteSpace=wrap;html=1;fillColor=#d5e8d4;strokeColor=#82b366;" vertex="1" parent="80V5x-8hYkvcrAe8ty6e-21">
          <mxGeometry width="450" height="270" as="geometry" />
        </mxCell>
        <mxCell id="80V5x-8hYkvcrAe8ty6e-23" value="Component Header" style="text;html=1;align=center;verticalAlign=middle;resizable=0;points=[];autosize=1;strokeColor=none;fillColor=none;" vertex="1" parent="80V5x-8hYkvcrAe8ty6e-21">
          <mxGeometry x="160" width="130" height="30" as="geometry" />
        </mxCell>
        <mxCell id="80V5x-8hYkvcrAe8ty6e-24" value="typedef struct UpdateComponent {  /* 0x00-0x3F 64 Byte Component info        */&#xa;    struct {                      /* 0x00-0x23 Component Info                */&#xa;        uint32_t device_magic; /* 0x00-0x03 Component magic number        */&#xa;        uint32_t offset;          /* 0x04-0x07 Offset within the update file */&#xa;        uint32_t size;            /* 0x08-0x0B Size of the component         */&#xa;        uint32_t component;       /* 0x0C-0x0F Component ID(component_type_t)*/&#xa;        uint8_t major;            /* 0x10-0x11 Component major version       */&#xa;        uint8_t minor;            /* 0x11-0x12 Component major version       */&#xa;        uint8_t rev;              /* 0x12-0x13 Component major version       */&#xa;        uint8_t unused;           /* 0x13-0x14 Padding                       */&#xa;        uint8_t git_sha[16];      /* 0x14-0x23 git rev-parse HEAD (first 16) */&#xa;    } UpdateImageHdrInfo_t;&#xa;    uint8_t unused[0x1A];  /* 0x24-0x39 Pad = size-pos-(CRC + Magic)  */&#xa;    uint16_t crc;          /* 0x3E-0x3F CRC for this component        */&#xa;} UpdateImageHdr_t;" style="text;whiteSpace=wrap;" vertex="1" parent="80V5x-8hYkvcrAe8ty6e-21">
          <mxGeometry x="10" y="30" width="440" height="240" as="geometry" />
        </mxCell>
        <mxCell id="80V5x-8hYkvcrAe8ty6e-25" value="crc of all component headers" style="text;html=1;align=center;verticalAlign=middle;resizable=0;points=[];autosize=1;strokeColor=none;fillColor=none;" vertex="1" parent="1">
          <mxGeometry x="490" y="1150" width="180" height="30" as="geometry" />
        </mxCell>
        <mxCell id="80V5x-8hYkvcrAe8ty6e-26" value="" style="endArrow=none;html=1;rounded=0;" edge="1" parent="1">
          <mxGeometry width="50" height="50" relative="1" as="geometry">
            <mxPoint x="480" y="1149.65" as="sourcePoint" />
            <mxPoint x="950" y="1150" as="targetPoint" />
          </mxGeometry>
        </mxCell>
        <mxCell id="80V5x-8hYkvcrAe8ty6e-27" value="" style="rounded=0;whiteSpace=wrap;html=1;fillColor=#f8cecc;strokeColor=#b85450;" vertex="1" parent="1">
          <mxGeometry x="480" y="1180" width="470" height="70" as="geometry" />
        </mxCell>
        <mxCell id="80V5x-8hYkvcrAe8ty6e-28" value="" style="endArrow=none;html=1;rounded=0;" edge="1" parent="1">
          <mxGeometry width="50" height="50" relative="1" as="geometry">
            <mxPoint x="480" y="1180" as="sourcePoint" />
            <mxPoint x="950" y="1180.35" as="targetPoint" />
          </mxGeometry>
        </mxCell>
        <mxCell id="80V5x-8hYkvcrAe8ty6e-29" value="Component 1 Data" style="text;html=1;align=center;verticalAlign=middle;resizable=0;points=[];autosize=1;strokeColor=none;fillColor=none;" vertex="1" parent="1">
          <mxGeometry x="655" y="1200" width="120" height="30" as="geometry" />
        </mxCell>
        <mxCell id="80V5x-8hYkvcrAe8ty6e-30" value="" style="rounded=0;whiteSpace=wrap;html=1;fillColor=#f8cecc;strokeColor=#b85450;" vertex="1" parent="1">
          <mxGeometry x="480" y="1250" width="470" height="70" as="geometry" />
        </mxCell>
        <mxCell id="80V5x-8hYkvcrAe8ty6e-31" value="Component 2 Data" style="text;html=1;align=center;verticalAlign=middle;resizable=0;points=[];autosize=1;strokeColor=none;fillColor=none;" vertex="1" parent="1">
          <mxGeometry x="655" y="1270" width="120" height="30" as="geometry" />
        </mxCell>
        <mxCell id="80V5x-8hYkvcrAe8ty6e-32" value="" style="rounded=0;whiteSpace=wrap;html=1;" vertex="1" parent="1">
          <mxGeometry x="480" y="1320" width="470" height="70" as="geometry" />
        </mxCell>
        <mxCell id="80V5x-8hYkvcrAe8ty6e-33" value="0xDEADBEAF" style="text;html=1;align=center;verticalAlign=middle;resizable=0;points=[];autosize=1;strokeColor=none;fillColor=none;" vertex="1" parent="1">
          <mxGeometry x="670" y="1340" width="100" height="30" as="geometry" />
        </mxCell>
      </root>
    </mxGraphModel>
  </diagram>
</mxfile>
